<svg width="1400" height="560" viewBox="0 0 1400 560" fill="none" xmlns="http://www.w3.org/2000/svg">
  <rect width="1400" height="560" fill="#0F172A"/>
  <circle cx="210" cy="70" r="280" fill="#2563EB" fill-opacity="0.2"/>
  <circle cx="1250" cy="-40" r="340" fill="#F97316" fill-opacity="0.18"/>
  <rect x="72" y="70" width="1256" height="420" rx="28" fill="#111827" stroke="url(#paint0_linear_1_2)" stroke-width="2"/>
  <rect x="118" y="120" width="520" height="26" rx="13" fill="white" fill-opacity="0.16"/>
  <rect x="118" y="164" width="680" height="26" rx="13" fill="white" fill-opacity="0.12"/>
  <rect x="118" y="248" width="250" height="70" rx="12" fill="#2563EB"/>
  <rect x="388" y="248" width="300" height="70" rx="12" fill="white" fill-opacity="0.1"/>
  <rect x="904" y="124" width="248" height="248" rx="42" fill="url(#paint1_linear_1_2)"/>
  <path d="M978 184H1072V214H1010V236H1059V266H1010V328H978V184Z" fill="white"/>
  <path d="M1072 314L1102 344" stroke="white" stroke-width="18" stroke-linecap="round"/>
  <circle cx="1063" cy="303" r="40" stroke="white" stroke-width="18"/>
  <text x="118" y="392" fill="white" font-family="Arial, sans-serif" font-size="68" font-weight="700">Freepik Downloader</text>
  <text x="118" y="444" fill="#CBD5E1" font-family="Arial, sans-serif" font-size="28">Open the current Freepik tab, confirm, and route the download through your Pages app.</text>
  <defs>
    <linearGradient id="paint0_linear_1_2" x1="72" y1="70" x2="1328" y2="490" gradientUnits="userSpaceOnUse">
      <stop stop-color="#2563EB"/>
      <stop offset="1" stop-color="#F97316"/>
    </linearGradient>
    <linearGradient id="paint1_linear_1_2" x1="904" y1="124" x2="1152" y2="372" gradientUnits="userSpaceOnUse">
      <stop stop-color="#2563EB"/>
      <stop offset="1" stop-color="#F97316"/>
    </linearGradient>
  </defs>
</svg>
