<svg width="440" height="280" viewBox="0 0 440 280" fill="none" xmlns="http://www.w3.org/2000/svg">
  <rect width="440" height="280" fill="#0F172A"/>
  <circle cx="80" cy="56" r="120" fill="#2563EB" fill-opacity="0.22"/>
  <circle cx="386" cy="12" r="130" fill="#F97316" fill-opacity="0.2"/>
  <rect x="26" y="28" width="388" height="224" rx="20" fill="#111827" stroke="url(#paint0_linear_1_2)" stroke-width="2"/>
  <rect x="48" y="56" width="168" height="18" rx="9" fill="white" fill-opacity="0.16"/>
  <rect x="48" y="88" width="236" height="18" rx="9" fill="white" fill-opacity="0.12"/>
  <rect x="48" y="140" width="132" height="44" rx="8" fill="#2563EB"/>
  <rect x="194" y="140" width="172" height="44" rx="8" fill="white" fill-opacity="0.1"/>
  <rect x="290" y="54" width="86" height="86" rx="20" fill="url(#paint1_linear_1_2)"/>
  <path d="M316 74H349V84H327V91H344V101H327V118H316V74Z" fill="white"/>
  <path d="M348 113L358 123" stroke="white" stroke-width="6" stroke-linecap="round"/>
  <circle cx="345" cy="109" r="13" stroke="white" stroke-width="6"/>
  <text x="48" y="218" fill="white" font-family="Arial, sans-serif" font-size="26" font-weight="700">Freepik Downloader</text>
  <text x="48" y="242" fill="#CBD5E1" font-family="Arial, sans-serif" font-size="14">One-click confirm and download from Freepik tabs.</text>
  <defs>
    <linearGradient id="paint0_linear_1_2" x1="26" y1="28" x2="414" y2="252" gradientUnits="userSpaceOnUse">
      <stop stop-color="#2563EB"/>
      <stop offset="1" stop-color="#F97316"/>
    </linearGradient>
    <linearGradient id="paint1_linear_1_2" x1="290" y1="54" x2="376" y2="140" gradientUnits="userSpaceOnUse">
      <stop stop-color="#2563EB"/>
      <stop offset="1" stop-color="#F97316"/>
    </linearGradient>
  </defs>
</svg>
